# xmcd CD database file
#
# Track frame offsets:
#	150
#	14736
#	31276
#	43589
#	60267
#	76790
#	90383
#	103616
#	118967
#	133323
#	147227
#
# Disc length: 2137 seconds
#
# Revision: 1
# Processed by: cddbd v1.5.2PL0 Copyright (c) Steve Scherf et al.
# Submitted via: CDex 1.51
#
DISCID=8f08570b
DTITLE=Diving With Andy - Diving With Andy
DYEAR=2006
DGENRE=Pop
TTITLE0=Andrew
TTITLE1=Manderley
TTITLE2=October in May
TTITLE3=Where does it lead ?
TTITLE4=Balancing my head
TTITLE5=Wasted time
TTITLE6=The Waltz
TTITLE7=Feeling insecure
TTITLE8=Unsure
TTITLE9=Dear
TTITLE10=Wishing I could taste him
EXTD=YEAR: 2006
EXTT0=
EXTT1=
EXTT2=
EXTT3=
EXTT4=
EXTT5=
EXTT6=
EXTT7=
EXTT8=
EXTT9=
EXTT10=
PLAYORDER=
